<?xml version="1.0" encoding="UTF-8" standalone="no"?>
<svg width="592px" height="107px" viewBox="0 0 592 107" version="1.1" xmlns="http://www.w3.org/2000/svg" xmlns:xlink="http://www.w3.org/1999/xlink">
    <!-- Generator: Sketch 41.2 (35397) - http://www.bohemiancoding.com/sketch -->
    <title>logo</title>
    <desc>Created with Sketch.</desc>
    <defs>
        <path d="M0.205,0.296 C2.93,0.296 5.439,1.776 6.757,4.162 L20.134,28.38 C21.378,30.633 21.378,33.365 20.134,35.618 L6.757,59.837 C5.439,62.222 2.93,63.704 0.205,63.704 L21.13,63.704 C23.855,63.704 26.365,62.222 27.683,59.837 L41.059,35.618 C42.303,33.365 42.303,30.633 41.059,28.38 L27.683,4.162 C26.365,1.776 23.855,0.296 21.13,0.296 L0.205,0.296 L0.205,0.296 Z" id="path-1"></path>
        <linearGradient x1="49.8774048%" y1="0.0180028703%" x2="49.8774048%" y2="100.017057%" id="linearGradient-3">
            <stop stop-color="#2DB571" offset="0%"></stop>
            <stop stop-color="#2DB571" offset="32.64%"></stop>
            <stop stop-color="#007D6E" offset="93.28%"></stop>
            <stop stop-color="#004B40" offset="100%"></stop>
        </linearGradient>
        <path d="M21.173,0.296 C18.447,0.296 15.938,1.776 14.621,4.162 L1.244,28.38 C0,30.633 0,33.365 1.244,35.618 L14.621,59.837 C15.938,62.222 18.447,63.704 21.173,63.704 L42.098,63.704 C39.373,63.704 36.863,62.222 35.546,59.837 L22.17,35.618 C20.926,33.365 20.926,30.633 22.17,28.38 L35.546,4.162 C36.863,1.776 39.373,0.296 42.098,0.296 L21.173,0.296 L21.173,0.296 Z" id="path-4"></path>
        <linearGradient x1="50.0223137%" y1="99.9893583%" x2="50.0223137%" y2="-0.00969546429%" id="linearGradient-6">
            <stop stop-color="#2DB571" offset="0%"></stop>
            <stop stop-color="#2DB571" offset="32.64%"></stop>
            <stop stop-color="#007D6E" offset="93.28%"></stop>
            <stop stop-color="#004B40" offset="100%"></stop>
        </linearGradient>
        <rect id="path-7" x="0.156" y="0.556" width="4.082" height="42.846"></rect>
        <linearGradient x1="50.0251387%" y1="99.955415%" x2="50.0251387%" y2="-0.0443515614%" id="linearGradient-9">
            <stop stop-color="#2AB471" offset="0%"></stop>
            <stop stop-color="#2AB471" offset="32.64%"></stop>
            <stop stop-color="#009F68" offset="100%"></stop>
        </linearGradient>
        <path d="M8.139,2.248 C6.297,3.388 5.018,4.897 4.297,6.778 L4.178,6.778 L4.178,1.437 L0.397,1.437 L0.397,32.401 L4.178,32.401 L4.178,14.339 C4.217,12.819 4.467,11.408 4.928,10.109 C5.387,8.809 6.028,7.688 6.848,6.749 C7.668,5.811 8.668,5.068 9.85,4.529 C11.03,3.988 12.379,3.719 13.899,3.719 C15.42,3.719 16.69,3.958 17.71,4.438 C18.73,4.918 19.54,5.578 20.142,6.419 C20.742,7.258 21.162,8.249 21.402,9.389 C21.642,10.53 21.761,11.759 21.761,13.079 L21.761,32.401 L25.542,32.401 L25.542,12.479 C25.542,10.639 25.362,8.978 25.001,7.498 C24.642,6.019 24.021,4.768 23.142,3.749 C22.261,2.728 21.091,1.937 19.632,1.378 C18.171,0.816 16.361,0.537 14.2,0.537 C12,0.537 9.979,1.107 8.139,2.248" id="path-10"></path>
        <linearGradient x1="50.0595963%" y1="99.957361%" x2="50.0595963%" y2="-0.0457773663%" id="linearGradient-12">
            <stop stop-color="#2AB471" offset="0%"></stop>
            <stop stop-color="#2AB471" offset="32.64%"></stop>
            <stop stop-color="#009F68" offset="100%"></stop>
        </linearGradient>
        <path d="M5.902,0.136 L5.902,9.438 L0.5,9.438 L0.5,12.618 L5.902,12.618 L5.902,33.803 C5.861,36.442 6.341,38.252 7.341,39.233 C8.341,40.214 10.101,40.703 12.62,40.703 C13.181,40.703 13.741,40.683 14.302,40.644 C14.861,40.603 15.421,40.583 15.982,40.583 L15.982,37.4 C14.902,37.521 13.824,37.581 12.742,37.581 C11.381,37.503 10.531,37.111 10.191,36.412 C9.851,35.713 9.681,34.741 9.681,33.502 L9.681,12.617 L15.982,12.617 L15.982,9.437 L9.681,9.437 L9.681,0.135 L5.902,0.135 L5.902,0.136 Z" id="path-13"></path>
        <linearGradient x1="50.1995007%" y1="100.025623%" x2="50.1995007%" y2="0.0243908542%" id="linearGradient-15">
            <stop stop-color="#2AB471" offset="0%"></stop>
            <stop stop-color="#2AB471" offset="32.64%"></stop>
            <stop stop-color="#009F68" offset="100%"></stop>
        </linearGradient>
        <path d="M5.652,10.647 C6.152,9.307 6.824,8.128 7.664,7.108 C8.504,6.088 9.521,5.268 10.725,4.647 C11.924,4.028 13.305,3.718 14.866,3.718 C16.386,3.718 17.745,4.028 18.946,4.647 C20.145,5.268 21.167,6.087 22.007,7.108 C22.847,8.129 23.495,9.298 23.958,10.618 C24.415,11.938 24.667,13.319 24.706,14.76 L4.665,14.76 C4.822,13.358 5.152,11.988 5.652,10.647 M8.533,1.947 C6.752,2.888 5.303,4.129 4.181,5.669 C3.059,7.209 2.232,8.959 1.693,10.919 C1.152,12.88 0.882,14.879 0.882,16.919 C0.882,19.121 1.152,21.211 1.693,23.19 C2.232,25.171 3.06,26.912 4.181,28.412 C5.302,29.91 6.751,31.092 8.533,31.951 C10.312,32.812 12.424,33.241 14.865,33.241 C18.785,33.241 21.814,32.282 23.957,30.361 C26.096,28.44 27.566,25.721 28.367,22.2 L24.586,22.2 C23.986,24.6 22.906,26.52 21.346,27.961 C19.785,29.4 17.625,30.122 14.866,30.122 C13.065,30.122 11.524,29.74 10.243,28.981 C8.964,28.22 7.903,27.261 7.063,26.101 C6.223,24.94 5.614,23.631 5.233,22.169 C4.852,20.709 4.665,19.3 4.665,17.938 L28.487,17.938 C28.567,15.778 28.368,13.649 27.885,11.548 C27.406,9.446 26.615,7.588 25.516,5.968 C24.414,4.347 22.987,3.038 21.225,2.036 C19.465,1.037 17.344,0.536 14.866,0.536 C12.424,0.537 10.312,1.008 8.533,1.947" id="path-16"></path>
        <linearGradient x1="50.1341555%" y1="99.995586%" x2="50.1341555%" y2="-0.0086947774%" id="linearGradient-18">
            <stop stop-color="#2AB471" offset="0%"></stop>
            <stop stop-color="#2AB471" offset="32.64%"></stop>
            <stop stop-color="#009F68" offset="100%"></stop>
        </linearGradient>
        <rect id="path-19" x="0.646" y="0.556" width="3.781" height="42.846"></rect>
        <linearGradient x1="50.1408664%" y1="99.955415%" x2="50.1408664%" y2="-0.0443515614%" id="linearGradient-21">
            <stop stop-color="#2AB471" offset="0%"></stop>
            <stop stop-color="#2AB471" offset="32.64%"></stop>
            <stop stop-color="#009F68" offset="100%"></stop>
        </linearGradient>
        <rect id="path-22" x="0.748" y="0.556" width="3.781" height="42.846"></rect>
        <linearGradient x1="49.6159815%" y1="99.955415%" x2="49.6159815%" y2="-0.0443515614%" id="linearGradient-24">
            <stop stop-color="#2AB471" offset="0%"></stop>
            <stop stop-color="#2AB471" offset="32.64%"></stop>
            <stop stop-color="#009F68" offset="100%"></stop>
        </linearGradient>
        <path d="M0.85,43.401 L4.629,43.401 L4.629,12.437 L0.85,12.437 L0.85,43.401 Z M0.85,6.617 L4.629,6.617 L4.629,0.556 L0.85,0.556 L0.85,6.617 Z" id="path-25"></path>
        <linearGradient x1="49.4226055%" y1="99.955415%" x2="49.4226055%" y2="-0.0443515614%" id="linearGradient-27">
            <stop stop-color="#2AB471" offset="0%"></stop>
            <stop stop-color="#2AB471" offset="32.64%"></stop>
            <stop stop-color="#009F68" offset="100%"></stop>
        </linearGradient>
        <path d="M9.752,27.811 C8.471,27.111 7.412,26.191 6.572,25.05 C5.73,23.909 5.111,22.601 4.711,21.121 C4.311,19.64 4.111,18.12 4.111,16.56 C4.111,14.959 4.3,13.389 4.679,11.849 C5.06,10.309 5.671,8.938 6.511,7.738 C7.351,6.538 8.411,5.568 9.691,4.827 C10.97,4.088 12.511,3.719 14.312,3.719 C16.113,3.719 17.642,4.098 18.904,4.859 C20.162,5.618 21.191,6.621 21.994,7.859 C22.793,9.099 23.373,10.479 23.732,12 C24.093,13.521 24.273,15.041 24.273,16.562 C24.273,18.122 24.062,19.641 23.644,21.123 C23.224,22.602 22.593,23.911 21.753,25.052 C20.913,26.193 19.872,27.113 18.632,27.813 C17.392,28.514 15.952,28.864 14.312,28.864 C12.553,28.861 11.031,28.512 9.752,27.811 M8.342,1.768 C6.602,2.589 5.141,3.708 3.961,5.128 C2.781,6.548 1.881,8.21 1.26,10.108 C0.641,12.007 0.332,14.019 0.332,16.138 C0.332,18.339 0.59,20.409 1.111,22.349 C1.629,24.291 2.461,25.981 3.601,27.421 C4.742,28.86 6.189,29.991 7.951,30.811 C9.711,31.632 11.832,32.041 14.312,32.041 C16.591,32.041 18.583,31.461 20.283,30.301 C21.983,29.141 23.271,27.601 24.154,25.679 L24.273,25.679 L24.273,29.881 C24.273,33.641 23.494,36.521 21.933,38.521 C20.372,40.521 17.831,41.523 14.312,41.523 C13.271,41.523 12.251,41.413 11.251,41.193 C10.251,40.971 9.339,40.622 8.521,40.141 C7.701,39.662 7,39.032 6.421,38.251 C5.839,37.472 5.45,36.502 5.251,35.342 L1.47,35.342 C1.589,36.981 2.04,38.391 2.82,39.572 C3.601,40.752 4.58,41.722 5.761,42.481 C6.939,43.242 8.269,43.802 9.751,44.164 C11.23,44.521 12.751,44.703 14.312,44.703 C16.832,44.703 18.962,44.361 20.703,43.682 C22.444,43.003 23.853,42.022 24.933,40.743 C26.013,39.463 26.802,37.9 27.304,36.061 C27.804,34.221 28.054,32.16 28.054,29.881 L28.054,1.438 L24.273,1.438 L24.273,6.779 L24.154,6.779 C23.795,5.938 23.283,5.139 22.625,4.38 C21.963,3.619 21.213,2.947 20.373,2.368 C19.533,1.789 18.603,1.339 17.584,1.017 C16.563,0.697 15.473,0.538 14.313,0.538 C12.072,0.537 10.082,0.946 8.342,1.768" id="path-28"></path>
        <linearGradient x1="49.974823%" y1="99.9689465%" x2="49.974823%" y2="-0.0294686078%" id="linearGradient-30">
            <stop stop-color="#2AB471" offset="0%"></stop>
            <stop stop-color="#2AB471" offset="32.64%"></stop>
            <stop stop-color="#009F68" offset="100%"></stop>
        </linearGradient>
        <path d="M5.465,10.647 C5.965,9.307 6.637,8.128 7.477,7.108 C8.317,6.088 9.336,5.268 10.538,4.647 C11.739,4.028 13.118,3.718 14.679,3.718 C16.199,3.718 17.558,4.028 18.759,4.647 C19.958,5.268 20.98,6.087 21.82,7.108 C22.66,8.129 23.308,9.298 23.771,10.618 C24.228,11.938 24.48,13.319 24.519,14.76 L4.476,14.76 C4.635,13.358 4.965,11.988 5.465,10.647 M8.346,1.947 C6.565,2.888 5.116,4.129 3.996,5.669 C2.875,7.209 2.045,8.959 1.506,10.919 C0.965,12.88 0.695,14.879 0.695,16.919 C0.695,19.121 0.965,21.211 1.506,23.19 C2.045,25.171 2.875,26.912 3.996,28.412 C5.115,29.91 6.564,31.092 8.346,31.951 C10.127,32.812 12.237,33.241 14.678,33.241 C18.598,33.241 21.629,32.282 23.77,30.361 C25.909,28.44 27.379,25.721 28.18,22.2 L24.399,22.2 C23.799,24.6 22.717,26.52 21.159,27.961 C19.598,29.4 17.438,30.122 14.679,30.122 C12.878,30.122 11.337,29.74 10.056,28.981 C8.779,28.22 7.716,27.261 6.878,26.101 C6.038,24.94 5.427,23.631 5.046,22.169 C4.667,20.709 4.476,19.3 4.476,17.938 L28.3,17.938 C28.38,15.778 28.181,13.649 27.7,11.548 C27.22,9.446 26.429,7.588 25.329,5.968 C24.227,4.347 22.8,3.038 21.038,2.036 C19.278,1.037 17.157,0.536 14.679,0.536 C12.236,0.537 10.127,1.008 8.346,1.947" id="path-31"></path>
        <linearGradient x1="50.1359616%" y1="99.995586%" x2="50.1359616%" y2="-0.0086947774%" id="linearGradient-33">
            <stop stop-color="#2AB471" offset="0%"></stop>
            <stop stop-color="#2AB471" offset="32.64%"></stop>
            <stop stop-color="#009F68" offset="100%"></stop>
        </linearGradient>
        <path d="M8.08,2.248 C6.24,3.388 4.963,4.897 4.242,6.778 L4.119,6.778 L4.119,1.437 L0.34,1.437 L0.34,32.401 L4.119,32.401 L4.119,14.339 C4.158,12.819 4.408,11.408 4.869,10.109 C5.33,8.81 5.971,7.688 6.789,6.749 C7.609,5.811 8.607,5.068 9.791,4.529 C10.971,3.988 12.32,3.719 13.84,3.719 C15.36,3.719 16.631,3.958 17.652,4.438 C18.672,4.917 19.482,5.578 20.082,6.419 C20.682,7.258 21.102,8.249 21.342,9.389 C21.582,10.53 21.703,11.759 21.703,13.079 L21.703,32.401 L25.482,32.401 L25.482,12.479 C25.482,10.639 25.302,8.978 24.943,7.498 C24.582,6.019 23.961,4.768 23.084,3.749 C22.203,2.728 21.031,1.937 19.57,1.378 C18.111,0.816 16.302,0.537 14.14,0.537 C11.941,0.537 9.918,1.107 8.08,2.248" id="path-34"></path>
        <linearGradient x1="50.0377262%" y1="99.957361%" x2="50.0377262%" y2="-0.0457773663%" id="linearGradient-36">
            <stop stop-color="#2AB471" offset="0%"></stop>
            <stop stop-color="#2AB471" offset="32.64%"></stop>
            <stop stop-color="#009F68" offset="100%"></stop>
        </linearGradient>
        <path d="M5.842,0.136 L5.842,9.438 L0.442,9.438 L0.442,12.618 L5.842,12.618 L5.842,33.803 C5.803,36.442 6.283,38.252 7.281,39.233 C8.281,40.214 10.043,40.703 12.564,40.703 C13.123,40.703 13.681,40.683 14.244,40.644 C14.803,40.603 15.363,40.583 15.924,40.583 L15.924,37.4 C14.844,37.521 13.764,37.581 12.684,37.581 C11.325,37.503 10.473,37.111 10.135,36.412 C9.793,35.713 9.625,34.741 9.625,33.502 L9.625,12.617 L15.924,12.617 L15.924,9.437 L9.625,9.437 L9.625,0.135 L5.842,0.135 L5.842,0.136 Z" id="path-37"></path>
        <linearGradient x1="50.1768938%" y1="100.025623%" x2="50.1768938%" y2="0.0243908542%" id="linearGradient-39">
            <stop stop-color="#2AB471" offset="0%"></stop>
            <stop stop-color="#2AB471" offset="32.64%"></stop>
            <stop stop-color="#009F68" offset="100%"></stop>
        </linearGradient>
        <rect id="path-40" x="0.029" y="0.556" width="9.422" height="42.846"></rect>
        <linearGradient x1="49.7631104%" y1="99.955415%" x2="49.7631104%" y2="-0.0443515614%" id="linearGradient-42">
            <stop stop-color="#2AB471" offset="0%"></stop>
            <stop stop-color="#2AB471" offset="32.64%"></stop>
            <stop stop-color="#009F68" offset="100%"></stop>
        </linearGradient>
        <path d="M13.316,1.768 C11.595,2.589 10.193,3.898 9.115,5.699 L8.933,5.699 L8.933,1.379 L0.833,1.379 L0.833,32.402 L9.354,32.402 L9.354,16.139 C9.354,12.98 9.874,10.71 10.915,9.327 C11.956,7.948 13.634,7.258 15.956,7.258 C17.995,7.258 19.415,7.888 20.218,9.148 C21.017,10.41 21.417,12.319 21.417,14.879 L21.417,32.401 L29.938,32.401 L29.938,13.319 C29.938,11.397 29.766,9.649 29.426,8.068 C29.086,6.489 28.498,5.149 27.656,4.048 C26.814,2.945 25.664,2.087 24.205,1.468 C22.744,0.847 20.875,0.536 18.596,0.536 C16.797,0.537 15.035,0.946 13.316,1.768" id="path-43"></path>
        <linearGradient x1="50.1184865%" y1="99.957361%" x2="50.1184865%" y2="-0.0457773663%" id="linearGradient-45">
            <stop stop-color="#2AB471" offset="0%"></stop>
            <stop stop-color="#2AB471" offset="32.64%"></stop>
            <stop stop-color="#009F68" offset="100%"></stop>
        </linearGradient>
        <polygon id="path-46" points="22.621 0.378 16.08 21.561 15.961 21.561 9.418 0.378 0.477 0.378 11.1 31.401 20.58 31.401 31.082 0.378"></polygon>
        <linearGradient x1="50.1065711%" y1="100.068414%" x2="50.1065711%" y2="0.0632568095%" id="linearGradient-48">
            <stop stop-color="#2AB471" offset="0%"></stop>
            <stop stop-color="#2AB471" offset="32.64%"></stop>
            <stop stop-color="#009F68" offset="100%"></stop>
        </linearGradient>
        <path d="M9.031,11.52 C9.25,10.759 9.633,10.039 10.172,9.359 C10.713,8.679 11.432,8.11 12.332,7.65 C13.232,7.189 14.363,6.959 15.723,6.959 C17.803,6.959 19.354,7.52 20.373,8.639 C21.393,9.759 22.103,11.399 22.502,13.56 L8.643,13.56 C8.682,12.96 8.812,12.279 9.031,11.52 M9.512,1.799 C7.573,2.638 5.901,3.788 4.502,5.248 C3.1,6.709 2.02,8.437 1.26,10.437 C0.5,12.439 0.119,14.599 0.119,16.918 C0.119,19.319 0.488,21.52 1.23,23.52 C1.97,25.521 3.021,27.241 4.38,28.681 C5.739,30.121 7.4,31.231 9.36,32.01 C11.321,32.792 13.52,33.181 15.962,33.181 C19.482,33.181 22.482,32.382 24.962,30.781 C27.442,29.182 29.284,26.52 30.483,22.8 L22.981,22.8 C22.702,23.761 21.942,24.671 20.702,25.529 C19.462,26.391 17.981,26.82 16.263,26.82 C13.861,26.82 12.021,26.2 10.742,24.961 C9.461,23.721 8.762,21.721 8.642,18.96 L31.025,18.96 C31.183,16.561 30.984,14.26 30.425,12.059 C29.863,9.86 28.954,7.899 27.693,6.179 C26.433,4.459 24.822,3.089 22.863,2.068 C20.902,1.047 18.601,0.538 15.963,0.538 C13.602,0.537 11.453,0.958 9.512,1.799" id="path-49"></path>
        <linearGradient x1="50.0993871%" y1="100.080358%" x2="50.0993871%" y2="0.0809704396%" id="linearGradient-51">
            <stop stop-color="#2AB471" offset="0%"></stop>
            <stop stop-color="#2AB471" offset="32.64%"></stop>
            <stop stop-color="#009F68" offset="100%"></stop>
        </linearGradient>
        <path d="M9.867,0.988 C8.267,1.288 6.828,1.807 5.547,2.548 C4.266,3.289 3.236,4.298 2.457,5.577 C1.676,6.858 1.287,8.498 1.287,10.499 C1.287,11.858 1.564,13.009 2.127,13.949 C2.686,14.889 3.426,15.671 4.346,16.29 C5.266,16.909 6.317,17.409 7.498,17.79 C8.678,18.17 9.887,18.5 11.127,18.779 C14.168,19.421 16.537,20.061 18.238,20.7 C19.937,21.341 20.789,22.301 20.789,23.58 C20.789,24.342 20.609,24.972 20.248,25.471 C19.889,25.971 19.437,26.371 18.896,26.67 C18.357,26.97 17.757,27.191 17.097,27.331 C16.437,27.471 15.806,27.542 15.206,27.542 C14.366,27.542 13.556,27.441 12.776,27.241 C11.997,27.042 11.305,26.731 10.706,26.311 C10.104,25.89 9.616,25.349 9.235,24.691 C8.856,24.031 8.665,23.24 8.665,22.32 L0.563,22.32 C0.643,24.399 1.112,26.132 1.975,27.51 C2.834,28.891 3.934,30.001 5.274,30.842 C6.614,31.681 8.145,32.281 9.866,32.642 C11.587,33.001 13.346,33.181 15.145,33.181 C16.907,33.181 18.635,33.012 20.336,32.671 C22.037,32.331 23.547,31.74 24.869,30.9 C26.185,30.06 27.258,28.95 28.078,27.571 C28.896,26.19 29.307,24.481 29.307,22.439 C29.307,21 29.028,19.79 28.467,18.81 C27.906,17.83 27.168,17.009 26.248,16.349 C25.328,15.688 24.275,15.158 23.096,14.759 C21.918,14.359 20.705,14.019 19.467,13.738 C18.266,13.459 17.086,13.198 15.926,12.96 C14.764,12.719 13.735,12.448 12.836,12.149 C11.936,11.849 11.205,11.459 10.645,10.978 C10.084,10.499 9.805,9.879 9.805,9.117 C9.805,8.479 9.965,7.969 10.285,7.589 C10.605,7.209 10.994,6.92 11.455,6.718 C11.916,6.518 12.426,6.388 12.986,6.329 C13.545,6.267 14.064,6.237 14.547,6.237 C16.067,6.237 17.387,6.528 18.506,7.108 C19.625,7.687 20.246,8.797 20.367,10.437 L28.467,10.437 C28.307,8.517 27.817,6.928 26.996,5.668 C26.178,4.405 25.146,3.397 23.906,2.637 C22.666,1.878 21.256,1.337 19.677,1.016 C18.095,0.696 16.464,0.537 14.786,0.537 C13.107,0.537 11.467,0.686 9.867,0.988" id="path-52"></path>
        <linearGradient x1="50.0958408%" y1="100.080358%" x2="50.0958408%" y2="0.0809704396%" id="linearGradient-54">
            <stop stop-color="#2AB471" offset="0%"></stop>
            <stop stop-color="#2AB471" offset="32.64%"></stop>
            <stop stop-color="#009F68" offset="100%"></stop>
        </linearGradient>
        <path d="M5.57,0.074 L5.57,9.378 L0.41,9.378 L0.41,15.077 L5.57,15.077 L5.57,33.381 C5.57,34.942 5.83,36.2 6.349,37.162 C6.869,38.122 7.579,38.862 8.48,39.381 C9.38,39.902 10.419,40.252 11.601,40.432 C12.779,40.612 14.031,40.702 15.351,40.702 C16.191,40.702 17.05,40.682 17.931,40.643 C18.81,40.602 19.611,40.521 20.331,40.402 L20.331,33.802 C19.931,33.882 19.511,33.94 19.071,33.982 C18.63,34.021 18.171,34.041 17.69,34.041 C16.251,34.041 15.29,33.803 14.809,33.321 C14.33,32.842 14.088,31.883 14.088,30.44 L14.088,15.077 L20.33,15.077 L20.33,9.378 L14.088,9.378 L14.088,0.074 L5.57,0.074 L5.57,0.074 Z" id="path-55"></path>
        <linearGradient x1="50.0873144%" y1="100.087575%" x2="50.0873144%" y2="0.089544244%" id="linearGradient-57">
            <stop stop-color="#2AB471" offset="0%"></stop>
            <stop stop-color="#2AB471" offset="32.64%"></stop>
            <stop stop-color="#009F68" offset="100%"></stop>
        </linearGradient>
        <path d="M0.65,43.401 L9.171,43.401 L9.171,12.377 L0.65,12.377 L0.65,43.401 Z M0.65,7.577 L9.171,7.577 L9.171,0.556 L0.65,0.556 L0.65,7.577 Z" id="path-58"></path>
        <linearGradient x1="50.074242%" y1="99.955415%" x2="50.074242%" y2="-0.0443515614%" id="linearGradient-60">
            <stop stop-color="#2AB471" offset="0%"></stop>
            <stop stop-color="#2AB471" offset="32.64%"></stop>
            <stop stop-color="#009F68" offset="100%"></stop>
        </linearGradient>
        <path d="M13.375,1.768 C11.654,2.589 10.254,3.898 9.176,5.699 L8.996,5.699 L8.996,1.379 L0.894,1.379 L0.894,32.402 L9.415,32.402 L9.415,16.139 C9.415,12.98 9.933,10.71 10.974,9.327 C12.015,7.948 13.695,7.258 16.015,7.258 C18.054,7.258 19.476,7.888 20.277,9.148 C21.076,10.41 21.476,12.319 21.476,14.879 L21.476,32.401 L29.997,32.401 L29.997,13.319 C29.997,11.397 29.827,9.649 29.487,8.068 C29.145,6.489 28.557,5.149 27.716,4.048 C26.876,2.945 25.726,2.087 24.267,1.468 C22.804,0.847 20.937,0.536 18.656,0.536 C16.855,0.537 15.096,0.946 13.375,1.768" id="path-61"></path>
        <linearGradient x1="50.0178171%" y1="99.957361%" x2="50.0178171%" y2="-0.0457773663%" id="linearGradient-63">
            <stop stop-color="#2AB471" offset="0%"></stop>
            <stop stop-color="#2AB471" offset="32.64%"></stop>
            <stop stop-color="#009F68" offset="100%"></stop>
        </linearGradient>
        <path d="M12.639,24.239 C11.76,23.68 11.049,22.96 10.508,22.081 C9.969,21.201 9.588,20.211 9.367,19.109 C9.148,18.01 9.037,16.899 9.037,15.778 C9.037,14.618 9.168,13.509 9.428,12.448 C9.69,11.388 10.108,10.448 10.688,9.628 C11.268,8.809 11.989,8.157 12.85,7.678 C13.709,7.198 14.739,6.958 15.94,6.958 C17.338,6.958 18.499,7.219 19.42,7.738 C20.34,8.259 21.08,8.959 21.641,9.839 C22.202,10.719 22.6,11.729 22.84,12.868 C23.08,14.009 23.199,15.221 23.199,16.499 C23.199,17.621 23.051,18.688 22.75,19.71 C22.451,20.73 22.002,21.64 21.4,22.439 C20.8,23.24 20.041,23.881 19.119,24.361 C18.197,24.841 17.14,25.081 15.939,25.081 C14.619,25.081 13.518,24.803 12.639,24.239 M8.107,1.799 C6.447,2.638 5.056,3.768 3.937,5.189 C2.816,6.609 1.966,8.25 1.388,10.109 C0.806,11.97 0.517,13.9 0.517,15.9 C0.517,18.02 0.767,20.031 1.267,21.932 C1.765,23.832 2.556,25.491 3.638,26.912 C4.716,28.332 6.099,29.451 7.777,30.27 C9.459,31.091 11.459,31.501 13.777,31.501 C15.66,31.501 17.449,31.11 19.15,30.331 C20.849,29.551 22.16,28.341 23.08,26.699 L23.199,26.699 L23.199,30.78 C23.238,32.98 22.709,34.801 21.609,36.24 C20.509,37.68 18.761,38.401 16.359,38.401 C14.839,38.401 13.5,38.09 12.338,37.471 C11.178,36.85 10.397,35.74 10,34.14 L1.539,34.14 C1.656,35.9 2.146,37.411 3.008,38.67 C3.867,39.932 4.947,40.961 6.248,41.76 C7.549,42.561 8.988,43.151 10.568,43.531 C12.148,43.912 13.697,44.102 15.218,44.102 C18.779,44.102 21.618,43.623 23.739,42.663 C25.858,41.703 27.479,40.531 28.6,39.15 C29.719,37.771 30.452,36.279 30.789,34.68 C31.129,33.08 31.299,31.66 31.299,30.42 L31.299,1.378 L23.197,1.378 L23.197,5.519 L23.078,5.519 C22.039,3.719 20.748,2.437 19.209,1.677 C17.666,0.919 15.877,0.537 13.838,0.537 C11.68,0.537 9.768,0.958 8.107,1.799" id="path-64"></path>
        <linearGradient x1="50.1423054%" y1="100.055204%" x2="50.1423054%" y2="0.0533677639%" id="linearGradient-66">
            <stop stop-color="#2AB471" offset="0%"></stop>
            <stop stop-color="#2AB471" offset="32.64%"></stop>
            <stop stop-color="#009F68" offset="100%"></stop>
        </linearGradient>
    </defs>
    <g id="Page-1" stroke="none" stroke-width="1" fill="none" fill-rule="evenodd">
        <g id="logo">
            <g id="Group">
                <g>
                    <g id="Clipped" transform="translate(21.000000, 0.000000)">
                        <mask id="mask-2" fill="white">
                            <use xlink:href="#path-1"></use>
                        </mask>
                        <g id="SVGID_1_"></g>
                        <rect id="Rectangle-path" fill="url(#linearGradient-3)" mask="url(#mask-2)" x="0.205" y="0.296" width="42.098" height="63.408"></rect>
                    </g>
                    <g id="Clipped">
                        <mask id="mask-5" fill="white">
                            <use xlink:href="#path-4"></use>
                        </mask>
                        <g id="SVGID_4_"></g>
                        <rect id="Rectangle-path" fill="url(#linearGradient-6)" mask="url(#mask-5)" x="0" y="0.296" width="42.098" height="63.408"></rect>
                    </g>
                    <g id="Clipped" transform="translate(84.000000, 8.000000)">
                        <mask id="mask-8" fill="white">
                            <use xlink:href="#path-7"></use>
                        </mask>
                        <g id="SVGID_7_"></g>
                        <rect id="Rectangle-path" fill="url(#linearGradient-9)" mask="url(#mask-8)" x="0.156" y="0.556" width="4.082" height="42.846"></rect>
                    </g>
                    <g id="Clipped" transform="translate(96.000000, 19.000000)">
                        <mask id="mask-11" fill="white">
                            <use xlink:href="#path-10"></use>
                        </mask>
                        <g id="SVGID_10_"></g>
                        <rect id="Rectangle-path" fill="url(#linearGradient-12)" mask="url(#mask-11)" x="0.396" y="0.537" width="25.145" height="31.864"></rect>
                    </g>
                    <g id="Clipped" transform="translate(125.000000, 11.000000)">
                        <mask id="mask-14" fill="white">
                            <use xlink:href="#path-13"></use>
                        </mask>
                        <g id="SVGID_13_"></g>
                        <rect id="Rectangle-path" fill="url(#linearGradient-15)" mask="url(#mask-14)" x="0.5" y="0.136" width="15.482" height="40.565"></rect>
                    </g>
                    <g id="Clipped" transform="translate(144.000000, 19.000000)">
                        <mask id="mask-17" fill="white">
                            <use xlink:href="#path-16"></use>
                        </mask>
                        <g id="SVGID_16_"></g>
                        <rect id="Rectangle-path" fill="url(#linearGradient-18)" mask="url(#mask-17)" x="0.883" y="0.537" width="27.684" height="32.704"></rect>
                    </g>
                    <g id="Clipped" transform="translate(177.000000, 8.000000)">
                        <mask id="mask-20" fill="white">
                            <use xlink:href="#path-19"></use>
                        </mask>
                        <g id="SVGID_19_"></g>
                        <rect id="Rectangle-path" fill="url(#linearGradient-21)" mask="url(#mask-20)" x="0.646" y="0.556" width="3.781" height="42.846"></rect>
                    </g>
                    <g id="Clipped" transform="translate(188.000000, 8.000000)">
                        <mask id="mask-23" fill="white">
                            <use xlink:href="#path-22"></use>
                        </mask>
                        <g id="SVGID_22_"></g>
                        <rect id="Rectangle-path" fill="url(#linearGradient-24)" mask="url(#mask-23)" x="0.748" y="0.556" width="3.781" height="42.846"></rect>
                    </g>
                    <g id="Clipped" transform="translate(199.000000, 8.000000)">
                        <mask id="mask-26" fill="white">
                            <use xlink:href="#path-25"></use>
                        </mask>
                        <g id="SVGID_25_"></g>
                        <rect id="Rectangle-path" fill="url(#linearGradient-27)" mask="url(#mask-26)" x="0.85" y="0.556" width="3.779" height="42.846"></rect>
                    </g>
                    <g id="Clipped" transform="translate(209.000000, 19.000000)">
                        <mask id="mask-29" fill="white">
                            <use xlink:href="#path-28"></use>
                        </mask>
                        <g id="SVGID_28_"></g>
                        <rect id="Rectangle-path" fill="url(#linearGradient-30)" mask="url(#mask-29)" x="0.332" y="0.537" width="27.723" height="44.167"></rect>
                    </g>
                    <g id="Clipped" transform="translate(242.000000, 19.000000)">
                        <mask id="mask-32" fill="white">
                            <use xlink:href="#path-31"></use>
                        </mask>
                        <g id="SVGID_31_"></g>
                        <rect id="Rectangle-path" fill="url(#linearGradient-33)" mask="url(#mask-32)" x="0.695" y="0.537" width="27.684" height="32.704"></rect>
                    </g>
                    <g id="Clipped" transform="translate(275.000000, 19.000000)">
                        <mask id="mask-35" fill="white">
                            <use xlink:href="#path-34"></use>
                        </mask>
                        <g id="SVGID_34_"></g>
                        <rect id="Rectangle-path" fill="url(#linearGradient-36)" mask="url(#mask-35)" x="0.34" y="0.537" width="25.143" height="31.864"></rect>
                    </g>
                    <g id="Clipped" transform="translate(304.000000, 11.000000)">
                        <mask id="mask-38" fill="white">
                            <use xlink:href="#path-37"></use>
                        </mask>
                        <g id="SVGID_37_"></g>
                        <rect id="Rectangle-path" fill="url(#linearGradient-39)" mask="url(#mask-38)" x="0.441" y="0.136" width="15.482" height="40.565"></rect>
                    </g>
                    <g id="Clipped" transform="translate(339.000000, 8.000000)">
                        <mask id="mask-41" fill="white">
                            <use xlink:href="#path-40"></use>
                        </mask>
                        <g id="SVGID_40_"></g>
                        <rect id="Rectangle-path" fill="url(#linearGradient-42)" mask="url(#mask-41)" x="0.029" y="0.556" width="9.422" height="42.846"></rect>
                    </g>
                    <g id="Clipped" transform="translate(355.000000, 19.000000)">
                        <mask id="mask-44" fill="white">
                            <use xlink:href="#path-43"></use>
                        </mask>
                        <g id="SVGID_43_"></g>
                        <rect id="Rectangle-path" fill="url(#linearGradient-45)" mask="url(#mask-44)" x="0.834" y="0.537" width="29.105" height="31.864"></rect>
                    </g>
                    <g id="Clipped" transform="translate(388.000000, 20.000000)">
                        <mask id="mask-47" fill="white">
                            <use xlink:href="#path-46"></use>
                        </mask>
                        <g id="SVGID_46_"></g>
                        <rect id="Rectangle-path" fill="url(#linearGradient-48)" mask="url(#mask-47)" x="0.477" y="0.378" width="30.605" height="31.023"></rect>
                    </g>
                    <g id="Clipped" transform="translate(421.000000, 19.000000)">
                        <mask id="mask-50" fill="white">
                            <use xlink:href="#path-49"></use>
                        </mask>
                        <g id="SVGID_49_"></g>
                        <rect id="Rectangle-path" fill="url(#linearGradient-51)" mask="url(#mask-50)" x="0.119" y="0.537" width="31.064" height="32.645"></rect>
                    </g>
                    <g id="Clipped" transform="translate(455.000000, 19.000000)">
                        <mask id="mask-53" fill="white">
                            <use xlink:href="#path-52"></use>
                        </mask>
                        <g id="SVGID_52_"></g>
                        <rect id="Rectangle-path" fill="url(#linearGradient-54)" mask="url(#mask-53)" x="0.564" y="0.537" width="28.744" height="32.645"></rect>
                    </g>
                    <g id="Clipped" transform="translate(486.000000, 11.000000)">
                        <mask id="mask-56" fill="white">
                            <use xlink:href="#path-55"></use>
                        </mask>
                        <g id="SVGID_55_"></g>
                        <rect id="Rectangle-path" fill="url(#linearGradient-57)" mask="url(#mask-56)" x="0.408" y="0.074" width="19.924" height="40.627"></rect>
                    </g>
                    <g id="Clipped" transform="translate(510.000000, 8.000000)">
                        <mask id="mask-59" fill="white">
                            <use xlink:href="#path-58"></use>
                        </mask>
                        <g id="SVGID_58_"></g>
                        <rect id="Rectangle-path" fill="url(#linearGradient-60)" mask="url(#mask-59)" x="0.65" y="0.556" width="8.521" height="42.846"></rect>
                    </g>
                    <g id="Clipped" transform="translate(525.000000, 19.000000)">
                        <mask id="mask-62" fill="white">
                            <use xlink:href="#path-61"></use>
                        </mask>
                        <g id="SVGID_61_"></g>
                        <rect id="Rectangle-path" fill="url(#linearGradient-63)" mask="url(#mask-62)" x="0.895" y="0.537" width="29.104" height="31.864"></rect>
                    </g>
                    <g id="Clipped" transform="translate(560.000000, 19.000000)">
                        <mask id="mask-65" fill="white">
                            <use xlink:href="#path-64"></use>
                        </mask>
                        <g id="SVGID_64_"></g>
                        <rect id="Rectangle-path" fill="url(#linearGradient-66)" mask="url(#mask-65)" x="0.518" y="0.537" width="30.783" height="43.566"></rect>
                    </g>
                </g>
            </g>
            <text id="Fee-Only-Advisor" font-family="ProximaNovaCond-Light, Proxima Nova Condensed" font-size="34" font-style="condensed" font-weight="300" fill="#2DB571">
                <tspan x="81" y="97">Fee Only Advisor</tspan>
            </text>
        </g>
    </g>
</svg>